<svg id="Layer_1" data-name="Layer 1" xmlns="http://www.w3.org/2000/svg" xmlns:xlink="http://www.w3.org/1999/xlink" viewBox="0 0 138.4 35.6"><defs><style>.cls-1{fill:none;}.cls-2{clip-path:url(#clip-path);}.cls-3{fill:#222855;}</style><clipPath id="clip-path"><rect class="cls-1" x="1.67" y="2.91" width="135.07" height="30.88"/></clipPath></defs><g id="Artwork_2" data-name="Artwork 2"><g class="cls-2"><g class="cls-2"><path class="cls-3" d="M21.58,30.5a.45.45,0,0,1-.42-.29.46.46,0,0,1,.26-.59,12.06,12.06,0,0,0,7-7.08.46.46,0,0,1,.58-.27.46.46,0,0,1,.27.59,13,13,0,0,1-7.54,7.61.41.41,0,0,1-.16,0"/><path class="cls-3" d="M12.31,30.38a.38.38,0,0,1-.17,0,13,13,0,0,1-7.26-7.61.45.45,0,0,1,.28-.58.45.45,0,0,1,.58.27,12.05,12.05,0,0,0,6.75,7.08.46.46,0,0,1-.18.88"/><path class="cls-3" d="M4.58,18.8a.47.47,0,0,1-.46-.46A13,13,0,0,1,26.35,9.23a.45.45,0,1,1-.64.64A12.08,12.08,0,0,0,5,18.34a.46.46,0,0,1-.45.46"/><path class="cls-3" d="M22.59,32.75a.46.46,0,0,1-.16-.88A14.54,14.54,0,0,0,17.1,3.81a14.4,14.4,0,0,0-6,1.3.45.45,0,0,1-.37-.83A15.44,15.44,0,0,1,29.8,27.13a15.38,15.38,0,0,1-7,5.58.35.35,0,0,1-.17,0"/><path class="cls-3" d="M26.41,15a.45.45,0,0,1-.42-.28,9.57,9.57,0,0,0-8.89-6l-.57,0a.45.45,0,1,1-.06-.9c.21,0,.42,0,.63,0a10.46,10.46,0,0,1,9.73,6.53.44.44,0,0,1-.24.59l-.18,0"/><path class="cls-3" d="M17.57,33.78H17.1A15.45,15.45,0,0,1,1.67,18.34,15.25,15.25,0,0,1,6.42,7.21a.45.45,0,0,1,.64,0,.46.46,0,0,1,0,.64,14.53,14.53,0,0,0,9.59,25l-.19-5.44a4.55,4.55,0,0,1,1-3.41c.94-.9,2.31-.85,3.63-.8a7.52,7.52,0,0,0,2.25-.12,6.74,6.74,0,0,0,5.2-6.78H23.81L23.7,16a7,7,0,0,0-13.59,2.32.45.45,0,1,1-.9,0,7.9,7.9,0,0,1,15.23-2.92h4.17a.86.86,0,0,1,.87.86A7.65,7.65,0,0,1,23.61,24a8.51,8.51,0,0,1-2.53.15c-1.18-.05-2.3-.09-3,.55a3.71,3.71,0,0,0-.77,2.74Z"/><path class="cls-3" d="M12.62,26.21A5.33,5.33,0,0,1,9.44,25a7.69,7.69,0,0,1-2.69-5.5,10.78,10.78,0,0,1,3.1-8.89.46.46,0,0,1,.64,0,.45.45,0,0,1,0,.64,10.12,10.12,0,0,0-2.8,8.12A6.93,6.93,0,0,0,10,24.3a4.19,4.19,0,0,0,2.89,1,2.13,2.13,0,0,0,1.78-1.68c.09-.42.06-4.43,0-8a.45.45,0,0,1,.44-.46.46.46,0,0,1,.47.44c0,1.79.15,7.67,0,8.27A3.05,3.05,0,0,1,13,26.18a2.38,2.38,0,0,1-.39,0"/><path class="cls-3" d="M42.3,18.34A10.16,10.16,0,1,1,52.46,28.48,10.08,10.08,0,0,1,42.3,18.34m10.16,7a6.83,6.83,0,0,0,6.94-7,6.94,6.94,0,1,0-13.88,0,6.84,6.84,0,0,0,6.94,7"/><path class="cls-3" d="M97.8,8.57H105a6.32,6.32,0,0,1,4.68,1.92,6.18,6.18,0,0,1,1.74,5.32A6.13,6.13,0,0,1,107.32,21a6.65,6.65,0,0,1-2.42.4h-3.67c-.18,0-.23.05-.23.23v6.47H97.8Zm3.22,3v6.8l.12,0c1.35,0,2.71,0,4.06,0a2.89,2.89,0,0,0,2.21-1,3.58,3.58,0,0,0,.83-2.91,3.12,3.12,0,0,0-2.81-2.82,18,18,0,0,0-1.94,0H101"/><path class="cls-3" d="M83.68,22.42a3.78,3.78,0,0,0,2,2.74,5,5,0,0,0,5-.16,9,9,0,0,0,1.14-1l2.42,1.41a6.74,6.74,0,0,1-1.53,1.62,7.28,7.28,0,0,1-4.2,1.41,8.21,8.21,0,0,1-4.22-.86,6.58,6.58,0,0,1-3.42-4.08,7.65,7.65,0,0,1,.54-6.05A6.8,6.8,0,0,1,86.6,13.9a6.94,6.94,0,0,1,8.14,5.57,7.48,7.48,0,0,1,.1,2.79c0,.12-.06.17-.18.16h-11Zm0-2.47h8.19a3.87,3.87,0,0,0-4-3.42A4,4,0,0,0,83.67,20"/><path class="cls-3" d="M123.62,24l2.48,1.45a6.55,6.55,0,0,1-1.53,1.62,7.25,7.25,0,0,1-4.19,1.41,8.26,8.26,0,0,1-4.23-.86,6.61,6.61,0,0,1-3.42-4.08,7.69,7.69,0,0,1,.54-6.05,6.8,6.8,0,0,1,5.19-3.58,6.94,6.94,0,0,1,8.14,5.56,7.54,7.54,0,0,1,.09,2.8c0,.12,0,.17-.17.16h-11a3.8,3.8,0,0,0,.42,1.17,4,4,0,0,0,2.93,2,5,5,0,0,0,3.44-.46A4,4,0,0,0,123.62,24m.09-4a3.87,3.87,0,0,0-4-3.42A4,4,0,0,0,115.54,20Z"/><path class="cls-3" d="M78.06,28.11h-3v-.29c0-2.6,0-5.2,0-7.81a5.56,5.56,0,0,0-.18-1.41A2.52,2.52,0,0,0,73,16.77a4,4,0,0,0-2.55.09,3.13,3.13,0,0,0-2,2.56,8.29,8.29,0,0,0-.11,1.41c0,2.32,0,4.65,0,7v.3h-3V14.17h3v1.68l.09.06a.2.2,0,0,1,0-.11,4.55,4.55,0,0,1,3.28-1.94,6,6,0,0,1,3.43.46,4.84,4.84,0,0,1,2.69,3.46,8,8,0,0,1,.2,1.83c0,2.77,0,5.53,0,8.29a1.55,1.55,0,0,1,0,.21"/><path class="cls-3" d="M136.73,28.12a10,10,0,0,1-3.86-.11,3.26,3.26,0,0,1-2.5-2.85,11.28,11.28,0,0,1-.12-1.54c0-2.08,0-4.16,0-6.24v-.3l-.25,0h-2.12c-.11,0-.21,0-.21-.16,0-.88,0-1.76,0-2.64a.58.58,0,0,1,0-.1h2.55V11.33c0-.11,0-.19.13-.23l2.81-.83h.08v3.89h3.46v2.89h-3.44c0,.1,0,.18,0,.25v6.35c0,.1,0,.21,0,.31a1.34,1.34,0,0,0,1.41,1.45c.51,0,1,0,1.53,0h.51Z"/></g></g></g></svg>