<svg xmlns="http://www.w3.org/2000/svg" viewBox="0 0 511.66 511.66"><defs><style>.cls-1{fill:#ffd36b;}</style></defs><g id="Layer_2" data-name="Layer 2"><g id="Layer_1-2" data-name="Layer 1"><path class="cls-1" d="M330,457.31a7.52,7.52,0,0,1-2.69-14.54A200.23,200.23,0,0,0,443.51,325.38a7.51,7.51,0,1,1,14.09,5.22A215.27,215.27,0,0,1,332.71,456.81,7.53,7.53,0,0,1,330,457.31Z"/><path class="cls-1" d="M176.43,455.23a7.49,7.49,0,0,1-2.87-.57A215.71,215.71,0,0,1,53.28,328.46a7.52,7.52,0,1,1,14.15-5.07A200.65,200.65,0,0,0,179.31,440.77a7.52,7.52,0,0,1-2.88,14.46Z"/><path class="cls-1" d="M48.22,263.35a7.52,7.52,0,0,1-7.51-7.52c0-118.62,96.5-215.12,215.12-215.12a213.56,213.56,0,0,1,153.25,64.15,7.52,7.52,0,1,1-10.71,10.55A198.64,198.64,0,0,0,255.83,55.74C145.5,55.74,55.74,145.5,55.74,255.83A7.52,7.52,0,0,1,48.22,263.35Z"/><path class="cls-1" d="M346.78,494.48A7.52,7.52,0,0,1,344,480c92.7-36.51,152.6-124.49,152.6-224.14,0-132.78-108-240.8-240.8-240.8a239,239,0,0,0-99.5,21.45,7.51,7.51,0,1,1-6.22-13.68A253.83,253.83,0,0,1,255.83,0C396.9,0,511.66,114.77,511.66,255.83A255.87,255.87,0,0,1,349.53,494,7.38,7.38,0,0,1,346.78,494.48Z"/><path class="cls-1" d="M410.09,200.33a7.52,7.52,0,0,1-7-4.67,158.56,158.56,0,0,0-147.3-98.9c-3.19,0-6.4.09-9.55.28a7.51,7.51,0,0,1-.9-15c3.46-.21,7-.31,10.45-.31A173.53,173.53,0,0,1,417,190a7.52,7.52,0,0,1-7,10.36Z"/><path class="cls-1" d="M263.62,511.66h-7.79C114.77,511.66,0,396.9,0,255.83A253.68,253.68,0,0,1,78.7,71.24,7.51,7.51,0,0,1,89.11,82.08,238.79,238.79,0,0,0,15,255.83C15,386,118.86,492.38,248,496.51l-3.21-90.06c0-26.79,5.67-45.26,17.34-56.49,15.61-15,38.24-14.13,60.13-13.28,13,.51,26.42,1,37.38-2,79.79-22,86.23-90.76,86.21-112.37l-79,0-1.77-5A115.88,115.88,0,0,0,140,255.83a7.52,7.52,0,1,1-15,0c0-72.17,58.72-130.89,130.89-130.89a131.12,131.12,0,0,1,121.61,82.37h69.08a14.43,14.43,0,0,1,14.39,14.3c.17,23.61-6.36,102.56-97.24,127.59-13.21,3.63-27.82,3.06-42,2.51-19.6-.76-38.12-1.48-49.12,9.09-8.55,8.23-12.72,23.12-12.73,45.52Z"/><path class="cls-1" d="M181.54,386.11c-13.94,0-34-5-52.74-19.79-17.36-13.67-39.17-40.61-44.52-91.23C74.59,183.39,133.1,130,135.6,127.79a7.51,7.51,0,1,1,10,11.21c-.61.55-55.23,50.76-46.38,134.52,3.79,35.94,17.24,64,38.88,81C157.5,369.8,177.31,372,186,370.81c18.35-2.41,26.15-16.47,29.46-27.84,1.56-7,1-73.46-.3-132.37a7.52,7.52,0,1,1,15-.34c.66,29.6,2.6,127-.3,136.91-3.74,12.83-14.15,34.89-41.93,38.54A48.32,48.32,0,0,1,181.54,386.11Z"/></g></g></svg>